<svg width="86" height="86" viewBox="0 0 86 86" fill="none" xmlns="http://www.w3.org/2000/svg">
<g clip-path="url(#clip0)">
<rect x="-17" y="-17" width="120" height="120" rx="60" fill="#5A9EFF"/>
<path d="M51.9332 27.3098C53.7264 29.1134 53.6347 31.8256 51.8613 33.9784C51.5185 34.3945 51.1245 34.7792 50.684 35.1291L53.8182 35.1291C57.2323 35.1291 60 37.9129 60 41.3468V42.0144C60 43.5796 59.7848 44.419 59.3807 45.1789C58.9767 45.9389 58.3837 46.5353 57.6281 46.9417C57.4017 47.0635 57.1681 47.1683 56.9101 47.2552L56.9091 52.0292L56.905 52.578C56.8683 54.9395 56.585 55.8758 56.0834 56.8192C55.5446 57.8324 54.754 58.6276 53.7466 59.1695L53.5377 59.278C52.628 59.7324 51.627 59.9812 49.2632 59.999L44.1591 59.9985V60H37.0156C34.26 60 33.2608 59.7114 32.2534 59.1695C31.246 58.6276 30.4554 57.8324 29.9166 56.8192L29.8087 56.609C29.357 55.6941 29.1096 54.6873 29.0919 52.3097L29.0907 47.2555C28.8324 47.1685 28.5986 47.0636 28.3719 46.9417C27.6163 46.5353 27.0233 45.9389 26.6193 45.1789C26.2152 44.419 26 43.5796 26 42.0144V41.3468C26 37.9129 28.7677 35.1291 32.1818 35.1291L35.3128 35.1291C34.8723 34.7792 34.4783 34.3945 34.1355 33.9784C32.3621 31.8256 32.2704 29.1134 34.0636 27.3098C35.8568 25.5062 38.5534 25.5984 40.6937 27.3822C41.6376 28.1687 42.4188 29.2236 42.9989 30.4905C43.578 29.2236 44.3592 28.1687 45.3031 27.3822C47.4435 25.5984 50.14 25.5062 51.9332 27.3098ZM41.8409 47.5639L31.4091 47.5645L31.4097 52.2739L31.415 52.7273C31.4431 54.2336 31.5739 54.9177 31.8713 55.5421L31.9608 55.7195C32.2835 56.3265 32.7432 56.7889 33.3466 57.1134C34.0804 57.5082 34.796 57.6568 36.7724 57.6677L41.8409 57.6677V47.5639ZM54.5909 47.5645L44.1591 47.5639V57.6677L49.2276 57.6677C51.204 57.6568 51.9196 57.5082 52.6534 57.1134C53.2568 56.7889 53.7165 56.3265 54.0392 55.7195L54.1287 55.5421C54.4686 54.8285 54.5909 54.0369 54.5909 52.0292V47.5645ZM41.8409 37.4601L32.1818 37.4607C30.048 37.4607 28.3182 39.2006 28.3182 41.3468L28.3194 42.2156C28.3318 43.1874 28.4378 43.6549 28.6635 44.0793C28.8515 44.4329 29.1135 44.6965 29.4651 44.8856C29.8871 45.1126 30.3519 45.2192 31.3181 45.2317L41.8409 45.2314V37.4601ZM53.8182 37.4607L44.1591 37.4601V45.2314L54.6819 45.2317C55.6481 45.2192 56.1129 45.1126 56.5349 44.8856C56.8865 44.6965 57.1485 44.4329 57.3365 44.0793C57.5772 43.6266 57.6818 43.1248 57.6818 42.0144V41.3468C57.6818 39.2006 55.952 37.4607 53.8182 37.4607ZM44.236 34.8283L44.2118 35.076L44.4581 35.0517C49.6716 34.4863 52.281 30.957 50.294 28.9585C48.3071 26.96 44.7982 29.5846 44.236 34.8283ZM41.7608 34.8283C41.1987 29.5846 37.6897 26.96 35.7028 28.9585C33.7158 30.957 36.3253 34.4863 41.5387 35.0517L41.785 35.076L41.7608 34.8283Z" fill="white"/>
</g>
<defs>
<clipPath id="clip0">
<rect width="86" height="86" rx="43" fill="white"/>
</clipPath>
</defs>
</svg>
